<svg width="800" height="600" viewBox="0 0 800 600" xmlns="http://www.w3.org/2000/svg" role="img" aria-labelledby="title desc">
  <title id="title">Climate-Controlled Warehouse Bay</title>
  <desc id="desc">Abstract warehouse cover image</desc>
  <defs>
    <linearGradient id="g" x1="0" y1="0" x2="1" y2="1">
      <stop offset="0%" stop-color="#1f2937"/>
      <stop offset="100%" stop-color="#0f766e"/>
    </linearGradient>
    <linearGradient id="g2" x1="0" y1="1" x2="1" y2="0">
      <stop offset="0%" stop-color="#5eead4" stop-opacity="0.9"/>
      <stop offset="100%" stop-color="#ecfeff" stop-opacity="0.16"/>
    </linearGradient>
  </defs>
  <rect width="800" height="600" fill="url(#g)"/>
  <rect x="70" y="110" width="660" height="380" rx="28" fill="#08111e" fill-opacity="0.28" stroke="#ffffff" stroke-opacity="0.12"/>
  <rect x="130" y="185" width="170" height="210" rx="18" fill="#111827" stroke="#99f6e4" stroke-width="4"/>
  <rect x="315" y="155" width="170" height="240" rx="18" fill="#111827" stroke="#99f6e4" stroke-width="4"/>
  <rect x="500" y="200" width="170" height="195" rx="18" fill="#111827" stroke="#99f6e4" stroke-width="4"/>
  <path d="M130 240h170M130 290h170M130 340h170" stroke="#ccfbf1" stroke-opacity="0.3" stroke-width="2"/>
  <path d="M315 205h170M315 260h170M315 315h170" stroke="#ccfbf1" stroke-opacity="0.3" stroke-width="2"/>
  <path d="M500 250h170M500 300h170M500 350h170" stroke="#ccfbf1" stroke-opacity="0.3" stroke-width="2"/>
  <rect x="115" y="408" width="570" height="52" rx="16" fill="url(#g2)"/>
  <text x="92" y="520" fill="#ecfeff" font-family="Inter, Arial, sans-serif" font-size="48" font-weight="700">Climate-Controlled Warehouse Bay</text>
  <text x="94" y="560" fill="#a7f3d0" font-family="Inter, Arial, sans-serif" font-size="24">Industrial scale space with stable conditions</text>
</svg>