<svg width="800" height="600" viewBox="0 0 800 600" xmlns="http://www.w3.org/2000/svg" role="img" aria-labelledby="title desc">
  <title id="title">Spare Room Crate Storage</title>
  <desc id="desc">Abstract small storage cover image</desc>
  <defs>
    <linearGradient id="g" x1="0" y1="0" x2="1" y2="1">
      <stop offset="0%" stop-color="#4c1d95"/>
      <stop offset="100%" stop-color="#db2777"/>
    </linearGradient>
    <linearGradient id="g2" x1="0" y1="1" x2="1" y2="0">
      <stop offset="0%" stop-color="#f9a8d4" stop-opacity="0.95"/>
      <stop offset="100%" stop-color="#ffffff" stop-opacity="0.12"/>
    </linearGradient>
  </defs>
  <rect width="800" height="600" fill="url(#g)"/>
  <circle cx="680" cy="120" r="120" fill="#ffffff" fill-opacity="0.08"/>
  <rect x="100" y="125" width="600" height="355" rx="28" fill="#111827" fill-opacity="0.24" stroke="#ffffff" stroke-opacity="0.12"/>
  <rect x="170" y="210" width="145" height="145" rx="18" fill="#1f2937" stroke="#f9a8d4" stroke-width="4"/>
  <rect x="328" y="175" width="165" height="180" rx="18" fill="#1f2937" stroke="#f9a8d4" stroke-width="4"/>
  <rect x="506" y="225" width="115" height="130" rx="18" fill="#1f2937" stroke="#f9a8d4" stroke-width="4"/>
  <path d="M170 248h145M170 286h145M170 323h145" stroke="#fdf2f8" stroke-opacity="0.3" stroke-width="2"/>
  <path d="M328 220h165M328 265h165M328 310h165" stroke="#fdf2f8" stroke-opacity="0.3" stroke-width="2"/>
  <path d="M506 260h115M506 300h115" stroke="#fdf2f8" stroke-opacity="0.3" stroke-width="2"/>
  <rect x="120" y="395" width="560" height="50" rx="16" fill="url(#g2)"/>
  <text x="92" y="520" fill="#fff7ed" font-family="Inter, Arial, sans-serif" font-size="50" font-weight="700">Spare Room Crate Storage</text>
  <text x="94" y="560" fill="#fbcfe8" font-family="Inter, Arial, sans-serif" font-size="24">Compact, clean, and budget friendly</text>
</svg>